<?xml version="1.0" standalone="no"?>
<!DOCTYPE svg PUBLIC "-//W3C//DTD SVG 20010904//EN"
 "http://www.w3.org/TR/2001/REC-SVG-20010904/DTD/svg10.dtd">
<svg version="1.0" xmlns="http://www.w3.org/2000/svg"
 width="300.000000pt" height="245.000000pt" viewBox="0 0 300.000000 245.000000"
 preserveAspectRatio="xMidYMid meet">
<metadata>
Created by potrace 1.10, written by Peter Selinger 2001-2011
</metadata>
<g transform="translate(0.000000,245.000000) scale(0.100000,-0.100000)"
fill="#000000" stroke="none">
<path d="M1275 2330 c-221 -39 -443 -167 -593 -340 -59 -69 -162 -225 -162
-247 0 -6 -8 -8 255 52 195 44 481 107 910 200 216 47 409 92 434 100 33 12
-196 150 -319 193 -176 61 -344 75 -525 42z m295 -15 c110 -12 141 -19 230
-53 104 -38 243 -119 248 -143 2 -11 -20 -20 -95 -37 -301 -67 -475 -105 -533
-117 -36 -7 -114 -25 -175 -38 -60 -14 -184 -42 -275 -62 -91 -20 -174 -40
-185 -44 -11 -5 -51 -14 -90 -21 -38 -6 -82 -14 -98 -17 -23 -5 -26 -3 -21 13
25 70 224 292 309 346 132 83 272 141 390 162 136 24 171 25 295 11z"/>
<path d="M152 2215 c-39 -32 -43 -78 -11 -119 16 -21 29 -26 63 -26 118 0 130
148 14 166 -27 5 -40 1 -66 -21z m90 -32 c25 -23 23 -50 -7 -69 -23 -15 -27
-15 -50 0 -29 19 -32 42 -8 68 20 22 41 23 65 1z"/>
<path d="M444 2216 c-54 -45 -29 -128 41 -142 71 -13 126 50 100 113 -24 57
-93 71 -141 29z m94 -28 c19 -19 14 -56 -8 -68 -44 -23 -93 20 -68 60 14 22
57 27 76 8z"/>
<path d="M2865 2134 c-6 -2 -57 -15 -114 -27 l-104 -24 -3 -477 -4 -478 28 7
c15 4 72 17 127 29 l100 21 3 58 c2 31 2 57 0 57 -2 0 -35 -9 -75 -19 l-72
-19 -3 159 -3 159 55 10 c30 6 59 12 63 13 10 3 16 107 6 112 -3 2 -31 -2 -62
-9 l-57 -13 0 148 0 148 75 16 75 17 0 59 c0 58 -5 66 -35 53z m-9 -69 c1 -9
-8 -17 -22 -20 -13 -3 -35 -7 -48 -10 -13 -3 -34 -13 -47 -24 -23 -18 -24 -26
-27 -158 -3 -127 -2 -141 16 -164 15 -18 30 -24 59 -24 53 0 49 -23 -7 -44
-65 -24 -70 -41 -68 -210 3 -142 3 -144 29 -163 22 -17 32 -18 65 -9 25 7 42
7 48 1 15 -15 -22 -37 -74 -44 -25 -3 -57 -8 -72 -12 l-28 -6 0 430 c0 333 3
432 13 440 13 11 149 42 156 35 3 -2 6 -10 7 -18z"/>
<path d="M2544 2061 c-17 -5 -36 -11 -42 -15 -14 -8 -16 -217 -5 -404 10 -184
26 -110 31 143 2 121 6 222 8 224 2 3 9 0 15 -6 12 -12 9 -837 -4 -849 -19
-19 -38 38 -86 261 -35 164 -62 198 -41 53 12 -85 62 -319 75 -351 6 -14 14
-16 44 -11 20 4 39 9 43 13 11 9 13 945 2 947 -5 1 -23 -1 -40 -5z"/>
<path d="M2343 2017 l-43 -11 0 -474 0 -475 42 7 c22 4 45 9 50 12 9 6 9 415
-1 459 l-7 30 -8 -40 c-11 -57 -15 -130 -16 -285 0 -97 -3 -131 -11 -123 -8 8
-11 139 -12 428 0 347 2 418 14 425 9 6 16 4 22 -5 7 -12 56 -235 72 -322 6
-37 44 -134 44 -116 2 28 -22 180 -50 318 -35 174 -38 186 -47 184 -4 -1 -26
-7 -49 -12z"/>
<path d="M2065 1951 c-16 -10 -38 -27 -48 -39 -43 -48 -46 -80 -47 -457 0
-344 1 -361 20 -393 41 -68 130 -75 200 -16 61 51 60 47 60 461 0 360 -1 380
-20 411 -33 53 -108 69 -165 33z m126 -47 l24 -26 0 -356 c-1 -196 -4 -369 -8
-383 -16 -61 -100 -111 -150 -88 -13 6 -29 21 -35 34 -15 32 -15 708 0 755 26
83 118 118 169 64z"/>
<path d="M2073 1866 l-28 -24 -3 -353 -3 -352 27 -29 c35 -35 53 -35 87 0 l27
28 0 351 c0 339 -1 351 -21 377 -25 32 -50 33 -86 2z m63 -17 c3 -6 6 -169 5
-362 -2 -293 -4 -354 -17 -367 -12 -12 -16 -12 -29 0 -12 13 -15 70 -15 365
-1 321 0 351 16 362 22 16 31 16 40 2z"/>
<path d="M173 1944 c-89 -44 -54 -189 44 -186 75 3 116 85 76 153 -16 26 -25
32 -73 44 -8 3 -29 -3 -47 -11z m85 -46 c20 -20 15 -76 -7 -88 -31 -16 -69
-12 -81 9 -15 30 -12 69 8 80 23 14 65 14 80 -1z"/>
<path d="M1910 1921 c-12 -7 -112 -30 -235 -56 -18 -4 -21 -12 -21 -60 0 -31
5 -55 11 -55 10 0 92 21 134 35 21 6 23 5 17 -11 -4 -11 -19 -82 -32 -159 -31
-176 -80 -417 -104 -515 -15 -61 -34 -191 -27 -190 1 0 65 13 142 29 l140 28
3 57 c2 31 2 56 0 56 -2 -1 -38 -9 -80 -19 -72 -17 -78 -17 -78 -2 0 9 16 93
36 186 19 94 41 202 49 240 7 39 26 135 43 215 47 228 48 246 2 221z m-10 -68
c0 -18 -20 -116 -80 -398 -17 -82 -40 -199 -51 -260 -11 -60 -22 -116 -24
-123 -3 -7 5 -24 18 -37 20 -22 26 -23 66 -14 30 7 47 7 55 -1 16 -16 -3 -27
-74 -40 -118 -21 -110 -23 -110 18 0 19 14 92 30 161 42 174 53 223 56 246 1
11 14 85 28 165 38 220 38 207 11 228 -20 16 -33 18 -72 12 -86 -14 -67 13 29
40 84 25 118 25 118 3z"/>
<path d="M1398 1807 l-58 -12 -2 -478 c-2 -363 0 -477 9 -477 32 0 152 34 184
52 20 11 48 38 62 61 27 40 27 43 28 227 2 398 -2 543 -17 572 -30 57 -101 76
-206 55z m140 -40 c49 -28 51 -43 51 -404 0 -258 -3 -344 -13 -368 -23 -54
-108 -105 -177 -105 l-27 0 -1 393 c0 443 2 475 33 487 32 13 108 11 134 -3z"/>
<path d="M1423 1718 c-20 -22 -20 -36 -21 -348 -1 -179 1 -342 5 -363 12 -77
80 -85 122 -16 18 30 19 52 18 366 l-2 335 -30 24 c-38 30 -66 30 -92 2z m75
-20 c9 -9 12 -100 12 -348 0 -356 -1 -361 -47 -375 l-23 -6 0 370 0 371 23 0
c13 0 28 -5 35 -12z"/>
<path d="M1215 1771 l-30 -6 -3 -175 c-4 -193 6 -377 18 -345 9 25 19 202 21
358 1 107 8 140 22 103 3 -8 6 -198 7 -424 0 -354 -2 -411 -15 -422 -12 -10
-16 -10 -20 1 -9 26 -74 304 -80 344 -8 49 -36 106 -50 102 -28 -9 -36 -60
-38 -266 -1 -115 -5 -212 -8 -216 -14 -13 -19 95 -19 425 0 347 5 440 22 440
14 0 36 -59 47 -126 21 -123 61 -296 76 -322 l14 -27 -4 30 c-3 17 -9 64 -15
105 -15 108 -59 341 -70 367 -8 19 -14 21 -47 16 -21 -3 -41 -8 -45 -12 -8 -7
-15 -958 -7 -965 3 -3 25 1 49 8 l45 13 -4 264 c-2 145 -1 262 2 259 3 -3 12
-48 21 -100 9 -52 31 -161 48 -242 l32 -148 36 0 c19 0 40 4 47 8 8 5 12 137
15 482 3 469 3 475 -17 476 -11 1 -33 -1 -50 -5z"/>
<path d="M835 1683 c-55 -13 -110 -26 -122 -29 l-23 -4 0 -486 c0 -386 3 -484
13 -477 6 4 64 19 127 34 l115 26 3 56 c2 32 -1 57 -5 57 -4 -1 -35 -7 -68
-15 -33 -8 -64 -15 -70 -15 -6 0 -9 56 -7 154 l3 154 62 14 62 13 3 58 3 58
-28 -7 c-15 -3 -44 -10 -63 -15 -19 -5 -37 -9 -40 -9 -3 0 -4 69 -2 153 l3
154 73 17 72 17 2 59 c1 33 -2 59 -6 59 -4 -1 -52 -13 -107 -26z m65 -48 c0
-8 -16 -19 -40 -25 -22 -6 -52 -21 -67 -34 -28 -24 -28 -26 -31 -163 -3 -131
-2 -140 19 -167 18 -23 28 -27 54 -23 35 6 58 -3 47 -18 -4 -6 -27 -17 -52
-25 -63 -21 -70 -40 -70 -202 0 -127 2 -140 21 -159 18 -18 29 -21 70 -16 50
6 69 -3 46 -22 -15 -12 -109 -35 -146 -36 l-24 0 2 430 c1 237 6 434 11 439 8
8 108 33 143 35 9 1 17 -6 17 -14z"/>
<path d="M421 1593 c-36 -7 -65 -14 -65 -16 -1 -1 0 -219 2 -484 l3 -482 37 6
c63 10 62 6 62 224 0 190 1 198 20 204 45 14 50 -6 50 -190 0 -197 2 -203 67
-188 l38 9 3 186 3 185 -30 29 c-26 24 -28 30 -17 44 40 45 46 76 46 240 0
187 -7 208 -70 234 -47 19 -62 18 -149 -1z m138 -38 c16 -8 32 -22 36 -32 11
-29 6 -315 -7 -330 -6 -7 -7 -13 -3 -13 4 0 0 -11 -9 -25 -22 -33 -20 -61 5
-101 19 -31 21 -48 20 -181 -1 -81 -6 -152 -11 -157 -16 -16 -19 11 -22 166
-3 139 -4 148 -27 172 -29 31 -57 33 -91 5 -25 -21 -25 -23 -28 -205 -3 -164
-11 -219 -24 -166 -3 9 -4 202 -3 429 1 316 4 415 14 426 22 28 107 35 150 12z"/>
<path d="M463 1518 c-12 -6 -25 -18 -29 -27 -4 -9 -8 -83 -9 -166 -2 -117 1
-154 12 -172 18 -28 41 -33 74 -17 50 25 57 48 58 200 2 138 2 140 -24 164
-29 28 -51 32 -82 18z m65 -180 l3 -146 -27 -21 c-15 -12 -31 -21 -35 -21 -5
0 -9 77 -9 171 l0 170 33 -3 32 -3 3 -147z"/>
<path d="M235 1550 c-38 -10 -90 -21 -115 -25 -72 -12 -80 -19 -80 -75 0 -54
3 -56 57 -41 l33 10 2 -427 3 -427 40 4 c22 1 43 5 48 8 4 2 7 197 7 432 l0
429 45 6 45 7 2 45 c0 24 1 49 2 56 2 18 -14 18 -89 -2z m43 -47 c-2 -10 -15
-23 -29 -30 -53 -26 -52 -16 -53 -443 -1 -305 -4 -402 -13 -412 -17 -16 -16
-43 -18 412 -3 383 -3 384 -25 402 -12 10 -31 18 -41 18 -21 0 -25 15 -8 26
12 7 153 41 177 43 8 1 12 -7 10 -16z"/>
<path d="M2678 964 c-85 -45 -51 -184 45 -184 50 0 97 46 97 95 0 49 -15 74
-55 91 -42 17 -53 17 -87 -2z m92 -39 c26 -24 26 -63 -2 -92 -26 -28 -55 -29
-85 -4 -30 25 -29 66 2 96 27 28 54 28 85 0z"/>
<path d="M2355 944 c-60 -12 -135 -30 -165 -38 -30 -9 -93 -23 -139 -31 -46
-9 -87 -18 -91 -20 -4 -3 -72 -18 -151 -35 -79 -17 -175 -39 -214 -49 -67 -18
-106 -27 -375 -86 -144 -31 -193 -45 -187 -52 7 -6 230 31 307 52 40 10 66 12
95 5 22 -5 239 -10 482 -10 286 0 444 -4 448 -10 3 -6 -1 -17 -9 -26 -9 -8
-16 -23 -16 -32 0 -16 -17 -16 -207 -11 -115 4 -435 8 -713 9 l-505 3 -105
-26 c-58 -14 -122 -29 -143 -33 -48 -8 -53 -18 -27 -55 24 -32 34 -31 35 4 0
46 32 48 845 47 474 0 758 -4 764 -10 6 -6 15 -10 21 -10 12 0 90 150 124 239
37 94 41 91 -116 92 -76 1 -149 5 -163 9 -14 4 -22 8 -18 9 4 1 53 10 110 20
57 11 124 23 151 27 l47 6 0 -31 c0 -17 4 -31 9 -31 11 0 32 83 23 91 -4 3
-56 -4 -117 -17z m-170 -139 c88 -2 179 -4 201 -4 l41 -1 -16 -35 -16 -34
-413 3 c-227 2 -415 6 -418 9 -8 7 7 11 170 37 71 11 137 25 145 30 9 6 45 7
81 4 36 -2 137 -7 225 -9z"/>
<path d="M2673 661 c-57 -36 -61 -122 -8 -168 71 -63 181 12 155 106 -19 71
-86 100 -147 62z m88 -34 c36 -28 27 -100 -13 -113 -72 -22 -110 65 -50 114
20 15 42 15 63 -1z"/>
<path d="M2266 504 c-9 -8 -16 -22 -16 -30 0 -8 -4 -13 -9 -10 -14 9 -1545 11
-1559 3 -13 -9 -8 -23 21 -62 13 -17 17 -18 32 -5 16 13 119 15 724 15 535 0
711 -3 727 -12 18 -10 24 -9 41 10 54 62 88 140 39 91z"/>
<path d="M730 382 c0 -5 11 -19 25 -32 19 -18 25 -20 25 -8 0 8 -8 22 -18 31
-20 19 -32 22 -32 9z"/>
<path d="M2156 364 c-9 -8 -16 -18 -16 -22 0 -4 -300 -6 -667 -4 -450 2 -670
-1 -677 -8 -7 -7 -1 -20 20 -40 29 -29 31 -30 83 -20 80 15 1122 13 1156 -2
24 -11 29 -9 68 33 23 24 48 52 56 62 17 21 -2 23 -23 1z"/>
<path d="M171 359 c-36 -14 -50 -39 -51 -86 0 -55 7 -71 41 -88 45 -24 77 -19
115 19 43 43 45 83 7 126 -31 33 -75 45 -112 29z m79 -51 c11 -12 20 -30 20
-40 0 -23 -35 -58 -57 -58 -57 1 -76 80 -26 109 27 16 40 13 63 -11z"/>
<path d="M461 357 c-86 -50 -52 -186 47 -187 80 0 125 110 68 168 -27 28 -83
37 -115 19z m84 -47 c20 -23 23 -63 5 -85 -32 -39 -108 3 -95 53 12 50 59 66
90 32z"/>
<path d="M2682 355 c-66 -29 -75 -128 -15 -175 74 -58 184 22 154 113 -22 65
-78 90 -139 62z m87 -51 c12 -15 21 -34 21 -43 0 -26 -38 -61 -65 -61 -56 0
-78 74 -33 113 29 24 53 21 77 -9z"/>
<path d="M2363 345 c-34 -24 -47 -76 -29 -118 40 -97 176 -67 176 38 0 78 -84
124 -147 80z m106 -58 c13 -35 -13 -77 -48 -77 -64 0 -78 87 -18 109 27 11 55
-3 66 -32z"/>
<path d="M885 241 c7 -12 141 -93 183 -110 25 -10 36 -11 45 -2 15 15 688 16
704 0 8 -8 26 -4 67 14 62 29 70 43 29 54 -49 14 -875 9 -901 -6 -19 -10 -23
-9 -28 4 -4 9 -24 25 -45 35 -41 21 -64 26 -54 11z"/>
<path d="M1988 229 c-21 -11 -38 -26 -38 -35 0 -13 7 -11 41 8 76 43 73 68 -3
27z"/>
<path d="M1143 106 c42 -33 156 -51 327 -51 145 0 174 3 243 24 43 13 80 28
84 34 3 5 -3 7 -13 4 -76 -23 -216 -41 -324 -41 -111 0 -199 11 -315 40 -19 5
-19 4 -2 -10z"/>
</g>
</svg>
